# Blender v2.77 (sub 0) OBJ File: ''
# www.blender.org
mtllib E.mtl
o Text_Text.002
v 1.897756 -0.084267 1.350803
v 1.384489 -0.084267 1.350803
v 1.320144 -0.084267 0.707354
v 1.833411 -0.084267 0.707354
v 1.848751 -0.084267 0.860754
v 1.502980 -0.084267 0.860754
v 1.512184 -0.084267 0.952793
v 1.838055 -0.084267 0.952793
v 1.853395 -0.084267 1.106193
v 1.527524 -0.084267 1.106193
v 1.536728 -0.084267 1.198233
v 1.882499 -0.084267 1.198233
v 1.897756 -0.304267 1.350803
v 1.384489 -0.304267 1.350803
v 1.320144 -0.304267 0.707354
v 1.833411 -0.304267 0.707354
v 1.848751 -0.304267 0.860754
v 1.502980 -0.304267 0.860754
v 1.512184 -0.304267 0.952793
v 1.838055 -0.304267 0.952793
v 1.853395 -0.304267 1.106193
v 1.527524 -0.304267 1.106193
v 1.536728 -0.304267 1.198233
v 1.882499 -0.304267 1.198233
v 1.897756 -0.304267 1.350803
v 1.905570 -0.301338 1.357874
v 1.908806 -0.294267 1.360803
v 1.384489 -0.304267 1.350803
v 1.378090 -0.301338 1.357874
v 1.375439 -0.294267 1.360803
v 1.320144 -0.304267 0.707354
v 1.312331 -0.301338 0.700283
v 1.309094 -0.294267 0.697354
v 1.833411 -0.304267 0.707354
v 1.839810 -0.301338 0.700283
v 1.842461 -0.294267 0.697354
v 1.848751 -0.304267 0.860754
v 1.856565 -0.301338 0.867825
v 1.859801 -0.294267 0.870754
v 1.502980 -0.304267 0.860754
v 1.510793 -0.301338 0.867825
v 1.514030 -0.294267 0.870754
v 1.512184 -0.304267 0.952793
v 1.518583 -0.301338 0.945722
v 1.521234 -0.294267 0.942793
v 1.838055 -0.304267 0.952793
v 1.844454 -0.301338 0.945722
v 1.847104 -0.294267 0.942793
v 1.853395 -0.304267 1.106193
v 1.861208 -0.301338 1.113264
v 1.864444 -0.294267 1.116193
v 1.527524 -0.304267 1.106193
v 1.535337 -0.301338 1.113264
v 1.538574 -0.294267 1.116193
v 1.536728 -0.304267 1.198233
v 1.543127 -0.301338 1.191162
v 1.545778 -0.294267 1.188233
v 1.882499 -0.304267 1.198233
v 1.888898 -0.301338 1.191162
v 1.891549 -0.294267 1.188233
v 1.908806 -0.294267 1.360803
v 1.908806 -0.094267 1.360803
v 1.375439 -0.294267 1.360803
v 1.375439 -0.094267 1.360803
v 1.309094 -0.294267 0.697354
v 1.309094 -0.094267 0.697354
v 1.842461 -0.294267 0.697354
v 1.842461 -0.094267 0.697354
v 1.859801 -0.294267 0.870754
v 1.859801 -0.094267 0.870754
v 1.514030 -0.294267 0.870754
v 1.514030 -0.094267 0.870754
v 1.521234 -0.294267 0.942793
v 1.521234 -0.094267 0.942793
v 1.847104 -0.294267 0.942793
v 1.847104 -0.094267 0.942793
v 1.864444 -0.294267 1.116193
v 1.864444 -0.094267 1.116193
v 1.538574 -0.294267 1.116193
v 1.538574 -0.094267 1.116193
v 1.545778 -0.294267 1.188233
v 1.545778 -0.094267 1.188233
v 1.891549 -0.294267 1.188233
v 1.891549 -0.094267 1.188233
v 1.908806 -0.094267 1.360803
v 1.905570 -0.087196 1.357874
v 1.897756 -0.084267 1.350803
v 1.375439 -0.094267 1.360803
v 1.378090 -0.087196 1.357874
v 1.384489 -0.084267 1.350803
v 1.309094 -0.094267 0.697354
v 1.312331 -0.087196 0.700283
v 1.320144 -0.084267 0.707354
v 1.842461 -0.094267 0.697354
v 1.839810 -0.087196 0.700283
v 1.833411 -0.084267 0.707354
v 1.859801 -0.094267 0.870754
v 1.856565 -0.087196 0.867825
v 1.848751 -0.084267 0.860754
v 1.514030 -0.094267 0.870754
v 1.510793 -0.087196 0.867825
v 1.502980 -0.084267 0.860754
v 1.521234 -0.094267 0.942793
v 1.518583 -0.087196 0.945722
v 1.512184 -0.084267 0.952793
v 1.847104 -0.094267 0.942793
v 1.844454 -0.087196 0.945722
v 1.838055 -0.084267 0.952793
v 1.864444 -0.094267 1.116193
v 1.861208 -0.087196 1.113264
v 1.853395 -0.084267 1.106193
v 1.538574 -0.094267 1.116193
v 1.535337 -0.087196 1.113264
v 1.527524 -0.084267 1.106193
v 1.545778 -0.094267 1.188233
v 1.543127 -0.087196 1.191162
v 1.536728 -0.084267 1.198233
v 1.891549 -0.094267 1.188233
v 1.888898 -0.087196 1.191162
v 1.882499 -0.084267 1.198233
vn 0.000000 1.000000 0.000000
vn 0.000000 -1.000000 0.000000
vn 0.515200 -0.719100 0.466300
vn -0.476900 -0.703400 0.527000
vn -0.197000 -0.955900 0.217700
vn 0.198500 -0.963500 0.179700
vn 0.630900 -0.525300 0.571000
vn -0.585800 -0.487700 0.647300
vn -0.515200 -0.719100 -0.466300
vn -0.198500 -0.963500 -0.179700
vn -0.630900 -0.525300 -0.571000
vn 0.476900 -0.703400 -0.527000
vn 0.197000 -0.955900 -0.217700
vn 0.585800 -0.487700 -0.647300
vn 0.334800 -0.892200 0.303000
vn 0.198600 -0.963500 0.179700
vn 0.336900 -0.864800 -0.372300
vn 0.476900 -0.703500 -0.527000
vn 0.741400 0.000000 0.671000
vn -0.671000 0.000000 0.741400
vn -0.741400 0.000000 -0.671000
vn 0.671000 0.000000 -0.741400
vn 0.515200 0.719100 0.466300
vn -0.476900 0.703400 0.527000
vn -0.585800 0.487700 0.647300
vn 0.630900 0.525300 0.571000
vn 0.198500 0.963500 0.179700
vn -0.197000 0.955900 0.217700
vn -0.515200 0.719100 -0.466300
vn -0.630900 0.525300 -0.571000
vn -0.198500 0.963500 -0.179700
vn 0.476900 0.703400 -0.527000
vn 0.585800 0.487700 -0.647300
vn 0.197000 0.955900 -0.217700
vn 0.334800 0.892200 0.303000
vn 0.336900 0.864800 -0.372300
vn 0.476900 0.703500 -0.527000
usemtl None
s off
f 2//1 6//1 3//1
f 6//1 4//1 3//1
f 6//1 5//1 4//1
f 2//1 7//1 6//1
f 2//1 10//1 7//1
f 10//1 8//1 7//1
f 10//1 9//1 8//1
f 2//1 11//1 10//1
f 2//1 12//1 11//1
f 2//1 1//1 12//1
f 18//2 14//2 15//2
f 16//2 18//2 15//2
f 17//2 18//2 16//2
f 19//2 14//2 18//2
f 22//2 14//2 19//2
f 20//2 22//2 19//2
f 21//2 22//2 20//2
f 23//2 14//2 22//2
f 24//2 14//2 23//2
f 13//2 14//2 24//2
s 1
f 26//3 29//4 28//5 25//6
f 27//7 30//8 29//4 26//3
f 29//4 32//9 31//10 28//5
f 30//8 33//11 32//9 29//4
f 32//9 35//12 34//13 31//10
f 33//11 36//14 35//12 32//9
f 35//12 38//3 37//6 34//13
f 36//14 39//7 38//3 35//12
f 38//3 41//15 40//16 37//6
f 39//7 42//7 41//15 38//3
f 41//15 44//17 43//13 40//16
f 42//7 45//14 44//17 41//15
f 44//17 47//12 46//13 43//13
f 45//14 48//14 47//12 44//17
f 47//12 50//3 49//16 46//13
f 48//14 51//7 50//3 47//12
f 50//3 53//15 52//16 49//16
f 51//7 54//7 53//15 50//3
f 53//15 56//17 55//13 52//16
f 54//7 57//14 56//17 53//15
f 56//17 59//18 58//13 55//13
f 57//14 60//14 59//18 56//17
f 59//18 26//3 25//6 58//13
f 60//14 27//7 26//3 59//18
f 62//19 64//20 63//20 61//19
f 64//20 66//21 65//21 63//20
f 66//21 68//22 67//22 65//21
f 68//22 70//19 69//19 67//22
f 70//19 72//19 71//19 69//19
f 72//19 74//22 73//22 71//19
f 74//22 76//22 75//22 73//22
f 76//22 78//19 77//19 75//22
f 78//19 80//19 79//19 77//19
f 80//19 82//22 81//22 79//19
f 82//22 84//22 83//22 81//22
f 84//22 62//19 61//19 83//22
f 86//23 89//24 88//25 85//26
f 87//27 90//28 89//24 86//23
f 89//24 92//29 91//30 88//25
f 90//28 93//31 92//29 89//24
f 92//29 95//32 94//33 91//30
f 93//31 96//34 95//32 92//29
f 95//32 98//23 97//26 94//33
f 96//34 99//27 98//23 95//32
f 98//23 101//35 100//26 97//26
f 99//27 102//27 101//35 98//23
f 101//35 104//36 103//33 100//26
f 102//27 105//34 104//36 101//35
f 104//36 107//32 106//33 103//33
f 105//34 108//34 107//32 104//36
f 107//32 110//23 109//26 106//33
f 108//34 111//27 110//23 107//32
f 110//23 113//35 112//26 109//26
f 111//27 114//27 113//35 110//23
f 113//35 116//36 115//33 112//26
f 114//27 117//34 116//36 113//35
f 116//36 119//37 118//33 115//33
f 117//34 120//34 119//37 116//36
f 119//37 86//23 85//26 118//33
f 120//34 87//27 86//23 119//37
