# Blender v2.77 (sub 0) OBJ File: ''
# www.blender.org
mtllib K.mtl
o Text_Text.002
v 1.884821 -0.084267 0.707354
v 1.652400 -0.084267 1.011666
v 1.940874 -0.084267 1.350803
v 1.731919 -0.084267 1.350803
v 1.533660 -0.084267 1.134385
v 1.555302 -0.084267 1.350803
v 1.378685 -0.084267 1.350803
v 1.314340 -0.084267 0.707354
v 1.490957 -0.084267 0.707354
v 1.512599 -0.084267 0.923772
v 1.667574 -0.084267 0.707354
v 1.884821 -0.304267 0.707354
v 1.652400 -0.304267 1.011666
v 1.940874 -0.304267 1.350803
v 1.731919 -0.304267 1.350803
v 1.533660 -0.304267 1.134385
v 1.555302 -0.304267 1.350803
v 1.378685 -0.304267 1.350803
v 1.314340 -0.304267 0.707354
v 1.490957 -0.304267 0.707354
v 1.512599 -0.304267 0.923772
v 1.667574 -0.304267 0.707354
v 1.884821 -0.304267 0.707354
v 1.899119 -0.301338 0.700283
v 1.905041 -0.294267 0.697354
v 1.652400 -0.304267 1.011666
v 1.661479 -0.301338 1.011427
v 1.665241 -0.294267 1.011328
v 1.940874 -0.304267 1.350803
v 1.956172 -0.301338 1.357874
v 1.962508 -0.294267 1.360803
v 1.731919 -0.304267 1.350803
v 1.728807 -0.301338 1.357874
v 1.727518 -0.294267 1.360803
v 1.533660 -0.304267 1.134385
v 1.542812 -0.301338 1.154844
v 1.546603 -0.294267 1.163318
v 1.555302 -0.304267 1.350803
v 1.563115 -0.301338 1.357874
v 1.566352 -0.294267 1.360803
v 1.378685 -0.304267 1.350803
v 1.372285 -0.301338 1.357874
v 1.369635 -0.294267 1.360803
v 1.314340 -0.304267 0.707354
v 1.306526 -0.301338 0.700283
v 1.303290 -0.294267 0.697354
v 1.490957 -0.304267 0.707354
v 1.497356 -0.301338 0.700283
v 1.500007 -0.294267 0.697354
v 1.512599 -0.304267 0.923772
v 1.517768 -0.301338 0.904407
v 1.519910 -0.294267 0.896386
v 1.667574 -0.304267 0.707354
v 1.663940 -0.301338 0.700283
v 1.662435 -0.294267 0.697354
v 1.905041 -0.294267 0.697354
v 1.905041 -0.094267 0.697354
v 1.665241 -0.294267 1.011328
v 1.665241 -0.094267 1.011328
v 1.962508 -0.294267 1.360803
v 1.962508 -0.094267 1.360803
v 1.727518 -0.294267 1.360803
v 1.727518 -0.094267 1.360803
v 1.546603 -0.294267 1.163318
v 1.546603 -0.094267 1.163318
v 1.566352 -0.294267 1.360803
v 1.566352 -0.094267 1.360803
v 1.369635 -0.294267 1.360803
v 1.369635 -0.094267 1.360803
v 1.303290 -0.294267 0.697354
v 1.303290 -0.094267 0.697354
v 1.500007 -0.294267 0.697354
v 1.500007 -0.094267 0.697354
v 1.519910 -0.294267 0.896386
v 1.519910 -0.094267 0.896386
v 1.662435 -0.294267 0.697354
v 1.662435 -0.094267 0.697354
v 1.905041 -0.094267 0.697354
v 1.899119 -0.087196 0.700283
v 1.884821 -0.084267 0.707354
v 1.665241 -0.094267 1.011328
v 1.661479 -0.087196 1.011427
v 1.652400 -0.084267 1.011666
v 1.962508 -0.094267 1.360803
v 1.956172 -0.087196 1.357874
v 1.940874 -0.084267 1.350803
v 1.727518 -0.094267 1.360803
v 1.728807 -0.087196 1.357874
v 1.731919 -0.084267 1.350803
v 1.546603 -0.094267 1.163318
v 1.542812 -0.087196 1.154844
v 1.533660 -0.084267 1.134385
v 1.566352 -0.094267 1.360803
v 1.563115 -0.087196 1.357874
v 1.555302 -0.084267 1.350803
v 1.369635 -0.094267 1.360803
v 1.372285 -0.087196 1.357874
v 1.378685 -0.084267 1.350803
v 1.303290 -0.094267 0.697354
v 1.306526 -0.087196 0.700283
v 1.314340 -0.084267 0.707354
v 1.500007 -0.094267 0.697354
v 1.497356 -0.087196 0.700283
v 1.490957 -0.084267 0.707354
v 1.519910 -0.094267 0.896386
v 1.517768 -0.087196 0.904407
v 1.512599 -0.084267 0.923772
v 1.662435 -0.094267 0.697354
v 1.663940 -0.087196 0.700283
v 1.667574 -0.084267 0.707354
vn 0.000000 1.000000 -0.000000
vn 0.000000 -1.000000 0.000000
vn 0.543400 -0.795300 -0.268700
vn 0.528000 -0.849100 -0.013900
vn 0.306800 -0.951700 -0.008100
vn 0.161900 -0.983600 -0.080100
vn 0.654900 -0.682700 -0.323900
vn 0.882500 -0.469700 -0.023200
vn 0.537600 -0.805700 0.248500
vn 0.155400 -0.985200 0.071800
vn 0.646000 -0.702500 0.298600
vn -0.294400 -0.682500 0.669000
vn -0.142800 -0.935000 0.324500
vn -0.367000 -0.412300 0.833900
vn 0.076700 -0.982200 0.171400
vn 0.052900 -0.991500 0.118300
vn 0.247400 -0.795500 0.553100
vn 0.515200 -0.719100 0.466300
vn 0.198600 -0.963500 0.179700
vn 0.630900 -0.525300 0.571000
vn -0.476900 -0.703400 0.527000
vn -0.197000 -0.955900 0.217700
vn -0.585800 -0.487700 0.647300
vn -0.515200 -0.719100 -0.466300
vn -0.198500 -0.963500 -0.179700
vn -0.630900 -0.525300 -0.571000
vn 0.476900 -0.703400 -0.527000
vn 0.197000 -0.955900 -0.217700
vn 0.585800 -0.487700 -0.647300
vn 0.055400 -0.976600 -0.207600
vn 0.037300 -0.989500 -0.139700
vn 0.167200 -0.761300 -0.626500
vn -0.333600 -0.683400 -0.649300
vn -0.158000 -0.938300 -0.307500
vn -0.414300 -0.422200 -0.806300
vn 0.896400 0.000000 -0.443300
vn 0.999600 0.000000 -0.026300
vn 0.907700 0.000000 0.419600
vn -0.402800 0.000000 0.915300
vn 0.408300 0.000000 0.912800
vn 0.741400 0.000000 0.671000
vn -0.671000 0.000000 0.741400
vn -0.741400 0.000000 -0.671000
vn 0.671000 0.000000 -0.741400
vn 0.257900 0.000000 -0.966200
vn -0.457000 0.000000 -0.889400
vn 0.543400 0.795300 -0.268700
vn 0.528000 0.849100 -0.013900
vn 0.882500 0.469700 -0.023200
vn 0.654900 0.682700 -0.323900
vn 0.161900 0.983600 -0.080100
vn 0.306800 0.951700 -0.008100
vn 0.537600 0.805700 0.248500
vn 0.646000 0.702500 0.298600
vn 0.155400 0.985200 0.071800
vn -0.294400 0.682500 0.669000
vn -0.367000 0.412300 0.833900
vn -0.142800 0.935000 0.324500
vn 0.076700 0.982200 0.171400
vn 0.247400 0.795500 0.553100
vn 0.052900 0.991500 0.118300
vn 0.515200 0.719100 0.466300
vn 0.630900 0.525300 0.571000
vn 0.198600 0.963500 0.179700
vn -0.476900 0.703400 0.527000
vn -0.585800 0.487700 0.647300
vn -0.197000 0.955900 0.217700
vn -0.515200 0.719100 -0.466300
vn -0.630900 0.525300 -0.571000
vn -0.198500 0.963500 -0.179700
vn 0.476900 0.703400 -0.527000
vn 0.585800 0.487700 -0.647300
vn 0.197000 0.955900 -0.217700
vn 0.055400 0.976600 -0.207600
vn 0.167200 0.761300 -0.626500
vn 0.037300 0.989500 -0.139700
vn -0.333600 0.683400 -0.649300
vn -0.414300 0.422200 -0.806300
vn -0.158000 0.938300 -0.307500
usemtl None
s off
f 7//1 9//1 8//1
f 7//1 10//1 9//1
f 10//1 1//1 11//1
f 10//1 2//1 1//1
f 7//1 5//1 10//1
f 5//1 2//1 10//1
f 5//1 3//1 2//1
f 7//1 6//1 5//1
f 4//1 3//1 5//1
f 20//2 18//2 19//2
f 21//2 18//2 20//2
f 12//2 21//2 22//2
f 13//2 21//2 12//2
f 16//2 18//2 21//2
f 13//2 16//2 21//2
f 14//2 16//2 13//2
f 17//2 18//2 16//2
f 14//2 15//2 16//2
s 1
f 24//3 27//4 26//5 23//6
f 25//7 28//8 27//4 24//3
f 27//4 30//9 29//10 26//5
f 28//8 31//11 30//9 27//4
f 30//9 33//12 32//13 29//10
f 31//11 34//14 33//12 30//9
f 33//12 36//15 35//16 32//13
f 34//14 37//17 36//15 33//12
f 36//15 39//18 38//19 35//16
f 37//17 40//20 39//18 36//15
f 39//18 42//21 41//22 38//19
f 40//20 43//23 42//21 39//18
f 42//21 45//24 44//25 41//22
f 43//23 46//26 45//24 42//21
f 45//24 48//27 47//28 44//25
f 46//26 49//29 48//27 45//24
f 48//27 51//30 50//31 47//28
f 49//29 52//32 51//30 48//27
f 51//30 54//33 53//34 50//31
f 52//32 55//35 54//33 51//30
f 54//33 24//3 23//6 53//34
f 55//35 25//7 24//3 54//33
f 57//36 59//37 58//37 56//36
f 59//37 61//38 60//38 58//37
f 61//38 63//39 62//39 60//38
f 63//39 65//40 64//40 62//39
f 65//40 67//41 66//41 64//40
f 67//41 69//42 68//42 66//41
f 69//42 71//43 70//43 68//42
f 71//43 73//44 72//44 70//43
f 73//44 75//45 74//45 72//44
f 75//45 77//46 76//46 74//45
f 77//46 57//36 56//36 76//46
f 79//47 82//48 81//49 78//50
f 80//51 83//52 82//48 79//47
f 82//48 85//53 84//54 81//49
f 83//52 86//55 85//53 82//48
f 85//53 88//56 87//57 84//54
f 86//55 89//58 88//56 85//53
f 88//56 91//59 90//60 87//57
f 89//58 92//61 91//59 88//56
f 91//59 94//62 93//63 90//60
f 92//61 95//64 94//62 91//59
f 94//62 97//65 96//66 93//63
f 95//64 98//67 97//65 94//62
f 97//65 100//68 99//69 96//66
f 98//67 101//70 100//68 97//65
f 100//68 103//71 102//72 99//69
f 101//70 104//73 103//71 100//68
f 103//71 106//74 105//75 102//72
f 104//73 107//76 106//74 103//71
f 106//74 109//77 108//78 105//75
f 107//76 110//79 109//77 106//74
f 109//77 79//47 78//50 108//78
f 110//79 80//51 79//47 109//77
