# Blender v2.77 (sub 0) OBJ File: ''
# www.blender.org
mtllib N.mtl
o Text_Text.002
v 1.956545 -0.084267 1.349974
v 1.784074 -0.084267 1.349974
v 1.526695 -0.084267 1.006691
v 1.561023 -0.084267 1.349974
v 1.389381 -0.084267 1.349974
v 1.325119 -0.084267 0.707354
v 1.495932 -0.084267 0.707354
v 1.754472 -0.084267 1.053954
v 1.719812 -0.084267 0.707354
v 1.892283 -0.084267 0.707354
v 1.956545 -0.304267 1.349974
v 1.784074 -0.304267 1.349974
v 1.526695 -0.304267 1.006691
v 1.561023 -0.304267 1.349974
v 1.389381 -0.304267 1.349974
v 1.325119 -0.304267 0.707354
v 1.495932 -0.304267 0.707354
v 1.754472 -0.304267 1.053954
v 1.719812 -0.304267 0.707354
v 1.892283 -0.304267 0.707354
v 1.956545 -0.304267 1.349974
v 1.964359 -0.301338 1.357045
v 1.967595 -0.294267 1.359974
v 1.784074 -0.304267 1.349974
v 1.780538 -0.301338 1.357045
v 1.779073 -0.294267 1.359974
v 1.526695 -0.304267 1.006691
v 1.536255 -0.301338 1.031229
v 1.540215 -0.294267 1.041393
v 1.561023 -0.304267 1.349974
v 1.568836 -0.301338 1.357045
v 1.572073 -0.294267 1.359974
v 1.389381 -0.304267 1.349974
v 1.382982 -0.301338 1.357045
v 1.380331 -0.294267 1.359974
v 1.325119 -0.304267 0.707354
v 1.317306 -0.301338 0.700283
v 1.314069 -0.294267 0.697354
v 1.495932 -0.304267 0.707354
v 1.499479 -0.301338 0.700283
v 1.500948 -0.294267 0.697354
v 1.754472 -0.304267 1.053954
v 1.744900 -0.301338 1.029295
v 1.740935 -0.294267 1.019081
v 1.719812 -0.304267 0.707354
v 1.711999 -0.301338 0.700283
v 1.708763 -0.294267 0.697354
v 1.892283 -0.304267 0.707354
v 1.898683 -0.301338 0.700283
v 1.901333 -0.294267 0.697354
v 1.967595 -0.294267 1.359974
v 1.967595 -0.094267 1.359974
v 1.779073 -0.294267 1.359974
v 1.779073 -0.094267 1.359974
v 1.540215 -0.294267 1.041393
v 1.540215 -0.094267 1.041393
v 1.572073 -0.294267 1.359974
v 1.572073 -0.094267 1.359974
v 1.380331 -0.294267 1.359974
v 1.380331 -0.094267 1.359974
v 1.314069 -0.294267 0.697354
v 1.314069 -0.094267 0.697354
v 1.500948 -0.294267 0.697354
v 1.500948 -0.094267 0.697354
v 1.740935 -0.294267 1.019081
v 1.740935 -0.094267 1.019081
v 1.708763 -0.294267 0.697354
v 1.708763 -0.094267 0.697354
v 1.901333 -0.294267 0.697354
v 1.901333 -0.094267 0.697354
v 1.967595 -0.094267 1.359974
v 1.964359 -0.087196 1.357045
v 1.956545 -0.084267 1.349974
v 1.779073 -0.094267 1.359974
v 1.780538 -0.087196 1.357045
v 1.784074 -0.084267 1.349974
v 1.540215 -0.094267 1.041393
v 1.536255 -0.087196 1.031229
v 1.526695 -0.084267 1.006691
v 1.572073 -0.094267 1.359974
v 1.568836 -0.087196 1.357045
v 1.561023 -0.084267 1.349974
v 1.380331 -0.094267 1.359974
v 1.382982 -0.087196 1.357045
v 1.389381 -0.084267 1.349974
v 1.314069 -0.094267 0.697354
v 1.317306 -0.087196 0.700283
v 1.325119 -0.084267 0.707354
v 1.500948 -0.094267 0.697354
v 1.499479 -0.087196 0.700283
v 1.495932 -0.084267 0.707354
v 1.740935 -0.094267 1.019081
v 1.744900 -0.087196 1.029295
v 1.754472 -0.084267 1.053954
v 1.708763 -0.094267 0.697354
v 1.711999 -0.087196 0.700283
v 1.719812 -0.084267 0.707354
v 1.901333 -0.094267 0.697354
v 1.898683 -0.087196 0.700283
v 1.892283 -0.084267 0.707354
vn 0.000000 1.000000 0.000000
vn 0.000000 -1.000000 0.000000
vn 0.515200 -0.719100 0.466300
vn -0.326600 -0.683200 0.653100
vn -0.155400 -0.937700 0.310700
vn 0.198600 -0.963500 0.179700
vn 0.630900 -0.525300 0.571000
vn -0.405900 -0.420200 0.811600
vn 0.056000 -0.988000 0.143800
vn 0.040100 -0.993900 0.103000
vn 0.197500 -0.839100 0.506800
vn 0.198500 -0.963500 0.179700
vn -0.476900 -0.703400 0.527000
vn -0.197000 -0.955900 0.217700
vn -0.585800 -0.487700 0.647300
vn -0.515200 -0.719100 -0.466300
vn -0.198500 -0.963500 -0.179700
vn -0.630900 -0.525300 -0.571000
vn 0.327400 -0.683200 -0.652700
vn 0.155700 -0.937800 -0.310300
vn 0.406800 -0.420500 -0.811000
vn -0.055500 -0.988100 -0.143100
vn -0.039800 -0.993900 -0.102600
vn -0.196200 -0.840200 -0.505500
vn -0.198600 -0.963500 -0.179700
vn 0.476900 -0.703500 -0.527000
vn 0.197000 -0.955900 -0.217700
vn 0.585800 -0.487700 -0.647300
vn 0.741400 0.000000 0.671000
vn -0.447300 0.000000 0.894400
vn 0.363000 0.000000 0.931800
vn -0.671000 0.000000 0.741400
vn -0.741400 0.000000 -0.671000
vn 0.448400 0.000000 -0.893800
vn -0.361900 0.000000 -0.932200
vn 0.671000 0.000000 -0.741400
vn 0.515200 0.719100 0.466300
vn -0.326600 0.683200 0.653100
vn -0.405900 0.420200 0.811600
vn 0.630900 0.525300 0.571000
vn 0.198600 0.963500 0.179700
vn -0.155400 0.937700 0.310700
vn 0.056000 0.988000 0.143800
vn 0.197500 0.839100 0.506800
vn 0.040100 0.993900 0.103000
vn 0.198500 0.963500 0.179700
vn -0.476900 0.703400 0.527000
vn -0.585800 0.487700 0.647300
vn -0.197000 0.955900 0.217700
vn -0.515200 0.719100 -0.466300
vn -0.630900 0.525300 -0.571000
vn -0.198500 0.963500 -0.179700
vn 0.327400 0.683200 -0.652700
vn 0.406800 0.420500 -0.811000
vn 0.155700 0.937800 -0.310300
vn -0.055500 0.988100 -0.143100
vn -0.196200 0.840200 -0.505500
vn -0.039800 0.993900 -0.102600
vn -0.198600 0.963500 -0.179700
vn 0.476900 0.703500 -0.527000
vn 0.585800 0.487700 -0.647300
vn 0.197000 0.955900 -0.217700
usemtl None
s off
f 5//1 7//1 6//1
f 5//1 3//1 7//1
f 3//1 8//1 7//1
f 8//1 10//1 9//1
f 8//1 1//1 10//1
f 5//1 4//1 3//1
f 2//1 8//1 3//1
f 2//1 1//1 8//1
f 17//2 15//2 16//2
f 13//2 15//2 17//2
f 18//2 13//2 17//2
f 20//2 18//2 19//2
f 11//2 18//2 20//2
f 14//2 15//2 13//2
f 18//2 12//2 13//2
f 11//2 12//2 18//2
s 1
f 22//3 25//4 24//5 21//6
f 23//7 26//8 25//4 22//3
f 25//4 28//9 27//10 24//5
f 26//8 29//11 28//9 25//4
f 28//9 31//3 30//12 27//10
f 29//11 32//7 31//3 28//9
f 31//3 34//13 33//14 30//12
f 32//7 35//15 34//13 31//3
f 34//13 37//16 36//17 33//14
f 35//15 38//18 37//16 34//13
f 37//16 40//19 39//20 36//17
f 38//18 41//21 40//19 37//16
f 40//19 43//22 42//23 39//20
f 41//21 44//24 43//22 40//19
f 43//22 46//16 45//25 42//23
f 44//24 47//18 46//16 43//22
f 46//16 49//26 48//27 45//25
f 47//18 50//28 49//26 46//16
f 49//26 22//3 21//6 48//27
f 50//28 23//7 22//3 49//26
f 52//29 54//30 53//30 51//29
f 54//30 56//31 55//31 53//30
f 56//31 58//29 57//29 55//31
f 58//29 60//32 59//32 57//29
f 60//32 62//33 61//33 59//32
f 62//33 64//34 63//34 61//33
f 64//34 66//35 65//35 63//34
f 66//35 68//33 67//33 65//35
f 68//33 70//36 69//36 67//33
f 70//36 52//29 51//29 69//36
f 72//37 75//38 74//39 71//40
f 73//41 76//42 75//38 72//37
f 75//38 78//43 77//44 74//39
f 76//42 79//45 78//43 75//38
f 78//43 81//37 80//40 77//44
f 79//45 82//46 81//37 78//43
f 81//37 84//47 83//48 80//40
f 82//46 85//49 84//47 81//37
f 84//47 87//50 86//51 83//48
f 85//49 88//52 87//50 84//47
f 87//50 90//53 89//54 86//51
f 88//52 91//55 90//53 87//50
f 90//53 93//56 92//57 89//54
f 91//55 94//58 93//56 90//53
f 93//56 96//50 95//51 92//57
f 94//58 97//59 96//50 93//56
f 96//50 99//60 98//61 95//51
f 97//59 100//62 99//60 96//50
f 99//60 72//37 71//40 98//61
f 100//62 73//41 72//37 99//60
